
<svg id="Layer_1" data-name="Layer 1" xmlns="http://www.w3.org/2000/svg" viewBox="0 0 30 30"><defs><style>.cls-1{fill:#231f20;}</style></defs><title>tembah_icons_football</title><path class="cls-1" d="M28.37,9.42l-1.71-2a1.27,1.27,0,0,0-1.92,1.67l.52.6-1.08.93a11.89,11.89,0,0,0-8.89-5.07V4.44h1.38a2.22,2.22,0,0,0,0-4.44H12.11a2.22,2.22,0,1,0,0,4.44h1.38V5.57a11.91,11.91,0,1,0,11.25,5.95l1.19-1,.52.6a1.27,1.27,0,0,0,1.92-1.67Zm-13.95,18a10,10,0,1,1,10-10A10.05,10.05,0,0,1,14.42,27.47Z"/><path class="cls-1" d="M14.42,9v8.47H6A8.47,8.47,0,1,0,14.42,9Z"/></svg>