<?xml version="1.0" encoding="UTF-8"?>
<svg id="Layer_1" xmlns="http://www.w3.org/2000/svg" version="1.1" viewBox="0 0 1685.19 1037.04">
  <!-- Generator: Adobe Illustrator 30.2.1, SVG Export Plug-In . SVG Version: 2.1.1 Build 1)  -->
  <defs>
    <style>
      .st0 {
        fill: #2aad50;
      }

      .st1 {
        fill: #44c659;
      }

      .st2 {
        fill: #a6c661;
      }

      .st3 {
        fill: #ec9261;
      }

      .st4 {
        fill: #41cf5c;
      }

      .st5 {
        fill: #fefefe;
      }
    </style>
  </defs>
  <path class="st0" d="M17.44,27.32h1469.31c60.58,0,123.22-.84,183.65,0,.58,30.07.02,62.29.01,92.47v860.4c0,6.64,2.33,41.78-.01,44.71H17.44V27.32Z"/>
  <path class="st5" d="M132.33,83.97h1316.59c54.79,0,110.37.57,165.07,0v886.42H74.73c.78-25,.03-53.91.02-79.29l-.02-589.58c0-71.74-1.04-146,0-217.55h57.59Z"/>
  <path class="st1" d="M830.16,103.52h21.58v93.73l.87,191.47c70.92,5.02,125.82,64.13,125.6,135.23-.22,71.1-55.49,129.86-126.44,134.44l-.03,207.19v85.57c-5.93.25-13.22.02-19.26,0H91.52c-1.27-44.47-.01-95.77,0-140.77h337.94v-167.96c78.7-37.9,85.25-165.09,14.88-220.42-4.87-3.83-10.45-9.28-14.88-13.65-.42-16.52,1.74-140.64-1.63-146.5-16.1-4.21-28.13-1.51-44.61-1.49l-291.69.05V103.52c5.9.51,18.97.08,25.4.07l713.24-.07Z"/>
  <path class="st0" d="M830.16,103.52h21.58v93.73l.87,191.47c70.92,5.02,125.82,64.13,125.6,135.23-.22,71.1-55.49,129.86-126.44,134.44l-.03,207.19v85.57c-5.93.25-13.22.02-19.26,0-1.43-20.75-.04-62.99,0-85.57-3.69-.61-18.6-.13-23-.09l-121.77.07c-13.8-.09-34.83-.99-48.06.03.9-21.49.01-50.57,0-72.52V197.25s140.32-.03,140.32-.03c8.06-.02,45.08-1.43,50.18.03v-93.73Z"/>
  <path class="st5" d="M852.61,388.72c70.92,5.02,125.82,64.13,125.6,135.23-.22,71.1-55.49,129.86-126.44,134.44-6.1.39-12.23.37-18.33-.06-70.54-5.04-125.27-63.61-125.52-134.33-.25-70.72,54.07-129.67,124.58-135.2,6.69-.52,13.42-.55,20.11-.07Z"/>
  <path class="st0" d="M832.44,406.05c4.99-.47,10.01-.61,15.02-.44,63.47,2.2,113.78,54.29,113.78,117.8,0,63.51-50.31,115.6-113.78,117.81-3.4.12-6.8.09-10.2-.09-61.71-3.2-110.47-53.51-111.74-115.29-1.27-61.78,45.38-114.05,106.91-119.78Z"/>
  <path class="st2" d="M832.44,406.05c4.99-.47,10.01-.61,15.02-.44,1.7,10.21-1.49,54.14.1,68.68-2.18,3.24-6.45,4.32-10.03,5.7-1.04-13.54,1.94-64.83-2.29-73.05l-2.8-.89Z"/>
  <path class="st2" d="M837.53,567c3.71-.27,5.32-.49,9.08,0-.66,23.21.62,50.58.85,74.21-3.4.12-6.8.09-10.2-.09.3-24.34.61-49.84.27-74.12Z"/>
  <path class="st1" d="M851.74,103.52c26.28.83,56.51.01,83.19,0h661.32s0,156.9,0,156.9h-337.25v153.78c-36.73,28.55-59.3,51.38-65.43,100.59-5.95,47.74,22.39,105.33,65.43,127.63v167.96h337.25v140.77h-744.51v-85.57l.03-207.19c70.95-4.58,126.22-63.35,126.44-134.44.22-71.1-54.68-130.21-125.6-135.23l-.87-191.47v-93.73Z"/>
  <path class="st0" d="M851.74,197.25c19.14-.95,44.06.04,63.77.06l125.6-.06-.04,595.99c-.02,20.1-1.1,53.08.04,72.34l-129.44.06c-13.24,0-49.08,1.03-59.93-.06l.03-207.19c70.95-4.58,126.22-63.35,126.44-134.44.22-71.1-54.68-130.21-125.6-135.23l-.87-191.47Z"/>
  <path class="st4" d="M1276.37,278.27h319.88v123.99h-98.32v264.04h98.32v125.82h-319.88V278.27Z"/>
  <path class="st4" d="M332.48,278.27h79.75v513.85H91.52c.38-8.79.16-17.28,0-26.06v-99.76c23.15,1.26,47.64-.97,70.96.3,30.99,1.68,31.66.81,31.61-29.05-.04-26.58,4.4-224.23-4.19-233.01-7.97-3.94-83.63-2.31-98.39-2.29v-123.99h240.96Z"/>
  <path class="st4" d="M91.52,421.53h83.25v226.17h-83.25v-226.17Z"/>
  <path class="st4" d="M1515.44,421.53h80.81v226.17h-80.81v-226.17Z"/>
  <path class="st4" d="M429.46,431.43c53.38,31.68,59.82,120.37,22.83,168.74-7.15,8.02-15.35,16.27-22.83,24.07-3.7-58.53-1.36-133.95,0-192.82Z"/>
  <path class="st4" d="M1259,436.71c.62,1.34-.05,37.5-.06,42.46l.05,95.15c.04,16.26.97,33.97.01,49.93-7.5-8.47-15.11-16.56-23.59-24.07-34.3-59.4-38.51-119.6,23.59-163.46Z"/>
  <circle class="st3" cx="843.37" cy="523.41" r="52.94"/>
  <rect class="st3" x="832.16" y="103.52" width="17.3" height="284.94"/>
  <rect class="st3" x="833.16" y="659.48" width="17.3" height="291.79"/>
</svg>