<svg id="Layer_1" enable-background="new 0 0 512 512" viewBox="0 0 512 512" xmlns="http://www.w3.org/2000/svg"><path d="m139.8 71.5v23.3h110.5v-23.3h11.5v23.3h110.4v-23.3h11.5v23.5h-255.4v-23.5zm-11.5-40.5-26.2 13.8 26.2 13.7zm122 .1-26.3 13.7 26.2 13.7v-27.4zm121.9 0-26.2 13.7 26.2 13.7zm138.9 208.3v22.8c.3 73-60 133.3-132.9 133h-244.1c-73.1.2-133.3-60-133.1-133v-22.8c0-73.4 59.8-133 133.1-133h244.1c73.2 0 132.9 59.7 132.9 133zm-43.2-38.6c0-38.3-31.2-69.5-69.5-69.5h-284.8c-38.3 0-69.5 31.2-69.5 69.5v63.4c0 25.8 14.1 49.3 36.9 61.4 10 5.3 21.2 8.1 32.6 8.1h284.7c37.5.6 70.3-32 69.6-69.5zm42.8 118.9c.1-.3.3-.5.4-.8v29c0 73.4-59.6 133-132.9 133h-244.2c-73.4 0-133.1-59.7-133.1-133v-29c22 52.3 76.2 88.5 133.1 87.9h244.1c3.3 0 6.6-.1 9.8-.3 28.7-1.8 56.4-12.7 79.1-30.3 18.9-14.9 34.2-34.4 43.7-56.5zm-45.3 83c-24.2 21.1-55.2 32.8-87.4 32.8h-244c-32.2 0-63.3-11.7-87.5-32.8-5.7-4.9-13.1 3.7-7.5 8.7 26.3 23 60 35.7 95 35.7h244c34.9 0 68.7-12.7 95-35.7 5.7-5-2.1-13.5-7.6-8.7zm-53-117.1-8.4-29.8h-20.1l6.8 29.8zm-304.3-29.8-8.4 29.8h21.8l6.8-29.8zm3.2-11.5h24.2c3.6-.1 6.5 3.5 5.6 7l-9.4 41.3c-.6 2.7-2.9 4.5-5.6 4.5h-29.7l-5.8 20.3c7.2 3.2 15.1 4.7 23 4.8h136.6v-22.8c-22.8-1.7-39.9-13.8-39.9-28.9 0-15 17.1-27.1 39.9-28.9v-20.6h-132.3zm139 43.7v-34.6c-37.4 4.1-37.4 30.4 0 34.6zm11.5-34.6v34.6c16.9-1.6 28.4-9.8 28.4-17.3-.1-7.5-11.5-15.8-28.4-17.3zm124.3 43.7c-2.7 0-5.1-1.8-5.6-4.5l-9.4-41.3c-.9-3.5 2-7.1 5.6-7h24l-6.5-23.1h-132.4v20.6c52.8 4.4 52.8 53.3 0 57.7v22.8h136.6c7.9-.1 15.8-1.6 23-4.8l-5.7-20.3h-29.6zm12.3-116.2h-284.8c-32 0-58 26-58 58v25.3c0 19.1 9.3 36.6 24.6 47.4l27.7-97.8c.7-2.5 2.9-4.2 5.5-4.2h284.9c2.6 0 4.9 1.7 5.6 4.2 8 28.4 19.8 69.4 27.7 97.8 15.4-10.8 24.7-28.3 24.7-47.4v-25.2c.1-32.1-25.9-58.1-57.9-58.1zm0-38.1h-284.8c-31.9 0-57.9 25.9-58 57.9.1-.1.1-.2.1-.2 11.2-16.6 29.6-28.2 49.6-30.5 2.8-.3 5.5-.6 8.3-.6h284.7c23 0 45.4 12 58 31.3 0-32-26-57.9-57.9-57.9z"/></svg>