<svg id="f51d92db-54fc-4dff-8816-5d8022b05358" viewBox="0 0 64 64" xmlns="http://www.w3.org/2000/svg" data-name="Glph"><path d="m59.02939 37.34338-17.01076-15.56984a1.28335 1.28335 0 0 1 -.20014.11005l-1.83118.74046-10.80682 4.41283a3.9259 3.9259 0 0 1 -4.00253-.63042l-3.42215-2.86178a2.01262 2.01262 0 0 1 .52034-3.38213l10.40655-4.23274 2.04127-.83048-.95061-.87054a8.57117 8.57117 0 0 0 -8.61544-1.77114l-4.43279 1.541a4.89371 4.89371 0 0 0 .27019-1.631 5.12341 5.12341 0 1 0 -7.9049 4.3028c-11.99527 3.30855-11.83715 22.03491-1.19074 27.87749a16.0029 16.0029 0 0 0 12.12752 1.491 6.50868 6.50868 0 0 1 5.71364 1.36084c1.87208 1.47375 9.18694 7.8736 11.0269 9.11587.26472-1.34357 1.57683-7.48064 1.88122-8.95577l-16.13019-13.48859a1.00221 1.00221 0 0 1 1.28089-1.54091l16.07011 13.43846 10.26651-5.52352a.99833.99833 0 0 1 .94054 1.76114l-10.44656 5.62354c-.35244 1.65371-1.53173 7.34858-1.87119 8.92567a2.9577 2.9577 0 0 0 .75049-.28019l13.44851-7.23456a2.99115 2.99115 0 0 0 1.5109-2.02129l1.471-7.05445a3.03436 3.03436 0 0 0 -.91058-2.8218zm-46.27928-24.97582a3.12217 3.12217 0 0 1 6.24394.0001 3.12217 3.12217 0 0 1 -6.24394-.0001zm13.78869 28.508a.99714.99714 0 0 1 -1.00063 1.00063 10.31259 10.31259 0 0 0 -2.47154.30024c-10.81435 2.9593-18.58143-8.62474-13.60863-18.04155a.9987.9987 0 0 1 1.7511.96077c-4.12591 7.81551 2.22965 17.694 11.37724 15.13941 1.09496-.14971 3.84299-1.08622 3.95246.64053z"/><path d="m23.03659 22.01368 3.43216 2.8618a1.8965 1.8965 0 0 0 1.95125.31019l9.93627-4.05255 2.05129-.83054-4.04256-3.7023c-1.09945.44572-11.92905 4.84234-13.32841 5.4134z"/></svg>